<svg width="52" height="52" viewBox="0 0 52 52" fill="none" xmlns="http://www.w3.org/2000/svg">
<path d="M26 0C11.6405 0 0 11.6405 0 26C0 40.3595 11.6405 52 26 52C40.3595 52 52 40.3595 52 26C52 11.6405 40.3595 0 26 0Z" fill="#40B3E0"/>
<path d="M38.6513 14.9562L34.0073 38.3702C34.0073 38.3702 33.3579 39.994 31.5718 39.2146L20.8553 30.9986L16.9586 29.1152L10.3989 26.9069C10.3989 26.9069 9.39217 26.5498 9.29467 25.7704C9.19717 24.991 10.4314 24.5689 10.4314 24.5689L36.5077 14.3395C36.5077 14.3395 38.6511 13.3978 38.6511 14.9566" fill="white"/>
<path d="M20.0318 38.1068C20.0318 38.1068 19.719 38.0776 19.329 36.8434C18.9396 35.6094 16.9585 29.1147 16.9585 29.1147L32.7084 19.1128C32.7084 19.1128 33.6178 18.5607 33.5853 19.1128C33.5853 19.1128 33.7476 19.2103 33.2603 19.6649C32.7734 20.1197 20.8879 30.8035 20.8879 30.8035" fill="#D2E5F1"/>
<path d="M24.9642 34.1484L20.7256 38.0131C20.7256 38.0131 20.3941 38.2645 20.0317 38.1069L20.8434 30.9285" fill="#B5CFE4"/>
</svg>
