<svg width="193" height="172" viewBox="0 0 193 172" fill="none" xmlns="http://www.w3.org/2000/svg">
<path d="M158.684 55.6918C156.63 54.9867 154.559 54.3334 152.472 53.7327C152.823 52.2994 153.146 50.8834 153.432 49.4923C158.135 26.6487 155.06 8.24549 144.559 2.18626C134.491 -3.62251 118.025 2.43446 101.395 16.9164C99.7562 18.3462 98.1536 19.8172 96.589 21.3281C95.5415 20.3234 94.4756 19.3383 93.3916 18.3731C75.9628 2.8886 58.4933 -3.6376 48.0035 2.43898C37.9441 8.26586 34.9654 25.5662 39.1994 47.2156C39.6206 49.3597 40.0962 51.4928 40.6257 53.6128C38.1529 54.3158 35.7668 55.0642 33.4832 55.8608C13.0494 62.9898 0 74.1615 0 85.7496C0 97.7179 14.0091 109.722 35.2919 117.002C37.0173 117.589 38.7571 118.134 40.5096 118.635C39.9405 120.918 39.4352 123.217 38.9943 125.528C34.9579 146.802 38.11 163.694 48.1422 169.483C58.5039 175.463 75.895 169.317 92.8285 154.505C94.2016 153.301 95.5445 152.063 96.8558 150.791C98.5503 152.427 100.29 154.016 102.073 155.554C118.476 169.678 134.676 175.381 144.699 169.575C155.051 163.579 158.415 145.433 154.047 123.356C153.703 121.626 153.317 119.905 152.89 118.194C154.111 117.832 155.31 117.459 156.479 117.072C178.604 109.737 193 97.8779 193 85.7496C193 74.1192 179.529 62.8721 158.684 55.6918ZM153.886 109.241C152.83 109.59 151.748 109.928 150.644 110.256C148.201 102.518 144.905 94.2907 140.871 85.7896C144.721 77.4913 147.89 69.3689 150.264 61.6817C152.239 62.2535 154.154 62.8562 156.001 63.4922C173.861 69.645 184.755 78.7406 184.755 85.7496C184.755 93.215 172.99 102.907 153.886 109.241ZM145.959 124.958C147.891 134.72 148.166 143.546 146.887 150.446C145.738 156.647 143.426 160.78 140.567 162.436C134.486 165.959 121.478 161.38 107.45 149.301C105.792 147.87 104.174 146.393 102.598 144.872C108.036 138.921 113.471 132.003 118.776 124.318C128.106 123.49 136.921 122.135 144.914 120.286C145.308 121.876 145.658 123.434 145.959 124.958ZM65.7979 161.827C59.8556 163.927 55.1226 163.987 52.2615 162.336C46.1737 158.823 43.6429 145.26 47.095 127.067C47.5054 124.918 47.9752 122.78 48.5041 120.656C56.4095 122.406 65.1601 123.664 74.5123 124.423C79.853 131.942 85.4447 138.853 91.0802 144.905C89.8825 146.064 88.6566 147.194 87.4034 148.293C79.9148 154.843 72.4112 159.49 65.7979 161.827ZM37.9592 109.195C28.5482 105.976 20.7761 101.793 15.449 97.2283C10.6617 93.1267 8.24547 89.0538 8.24547 85.7496C8.24547 78.7172 18.7225 69.7476 36.1973 63.6514C38.318 62.9121 40.5375 62.2143 42.8407 61.5595C45.2562 69.4202 48.4242 77.6392 52.2472 85.9503C48.3744 94.3843 45.1612 102.735 42.7224 110.688C41.1227 110.23 39.5344 109.732 37.9592 109.195ZM47.291 45.6306C43.664 27.0825 46.0727 13.0909 52.1349 9.57924C58.5913 5.839 72.8688 11.1718 87.9175 24.5425C88.8988 25.4164 89.8643 26.3079 90.8133 27.2168C85.2057 33.2421 79.6653 40.1017 74.3721 47.5762C65.2951 48.4181 56.6063 49.7699 48.6179 51.5812C48.1257 49.6094 47.6833 47.6255 47.291 45.6313V45.6306ZM130.543 66.2012C128.656 62.9399 126.699 59.7197 124.673 56.5428C130.831 57.3221 136.731 58.3563 142.272 59.6207C140.609 64.9557 138.536 70.5329 136.095 76.2511C134.311 72.8645 132.46 69.5138 130.543 66.2012ZM96.5927 33.1131C100.395 37.2358 104.204 41.8383 107.95 46.8323C100.351 46.4732 92.7389 46.4717 85.1394 46.8278C88.8893 41.8798 92.7305 37.2833 96.5927 33.1131ZM62.4249 66.2578C60.5314 69.5438 58.7147 72.8735 56.9765 76.2443C54.576 70.5465 52.5216 64.9436 50.8442 59.5332C56.3507 58.3005 62.2229 57.2926 68.3416 56.5277C66.2936 59.724 64.3208 62.968 62.4249 66.257V66.2578ZM68.5173 115.558C62.1958 114.852 56.2354 113.896 50.7304 112.697C52.4342 107.19 54.5338 101.468 56.9863 95.6479C58.7314 99.0212 60.5556 102.353 62.4574 105.64C64.413 109.02 66.438 112.33 68.5173 115.558ZM96.8204 138.967C92.9122 134.748 89.0145 130.081 85.208 125.061C88.9036 125.206 92.6709 125.28 96.5 125.28C100.434 125.28 104.323 125.192 108.15 125.021C104.392 130.132 100.597 134.806 96.8204 138.967ZM136.173 95.3507C138.753 101.235 140.927 106.927 142.653 112.339C137.058 113.617 131.016 114.646 124.65 115.411C126.69 112.175 128.665 108.898 130.575 105.584C132.517 102.215 134.383 98.8029 136.173 95.3507ZM123.433 101.462C120.51 106.544 117.422 111.529 114.175 116.41C108.292 116.827 102.397 117.034 96.5 117.031C90.4936 117.031 84.6516 116.844 79.026 116.479C75.6939 111.609 72.5471 106.615 69.5923 101.507H69.5931C66.6522 96.4265 63.9053 91.2358 61.3582 85.9465C63.8988 80.6559 66.6374 75.4628 69.5682 70.3782L69.5675 70.379C72.4971 65.2931 75.6188 60.3204 78.9257 55.4716C84.6652 55.037 90.5509 54.8107 96.4992 54.8107H96.5C102.475 54.8107 108.369 55.0393 114.107 55.4768C117.38 60.3184 120.482 65.274 123.406 70.3345C126.347 75.4079 129.122 80.5756 131.726 85.8296C129.148 91.1372 126.382 96.3513 123.433 101.462ZM140.441 9.33331C146.904 13.063 149.417 28.1032 145.357 47.8266C145.098 49.0849 144.807 50.3666 144.49 51.6664C136.482 49.8167 127.787 48.4414 118.684 47.5867C113.381 40.03 107.885 33.1598 102.369 27.2123C103.815 25.8178 105.295 24.4595 106.808 23.1386C121.057 10.7312 134.374 5.83221 140.441 9.33331ZM96.5 68.5043C106.018 68.5043 113.734 76.2255 113.734 85.7496C113.734 95.2737 106.018 102.995 96.5 102.995C86.9819 102.995 79.2657 95.2737 79.2657 85.7496C79.2657 76.2255 86.9819 68.5043 96.5 68.5043Z" fill="#00D8FF"/>
</svg>
