<svg width="120" height="140" viewBox="0 0 120 140" fill="none" xmlns="http://www.w3.org/2000/svg">
<g filter="url(#filter0_i_13_6)">
<path d="M0.800049 112.824L1.55042 111.559L48.0002 35.4429L27.3591 1.73882C25.6437 -1.04351 21.2874 -0.334099 20.7245 2.78053L0.800049 112.824Z" fill="black"/>
</g>
<g filter="url(#filter1_i_13_6)">
<path d="M63.5164 59.2941L78.4003 46.1228L63.5164 21.6337C62.1032 19.3091 58.6697 19.0655 57.2713 21.3969L49.0464 35.0887L48.8002 35.7888L63.5164 59.2941Z" fill="black"/>
</g>
<path d="M0 114.471L0.451823 114.076L2.09379 113.497L62.4356 61.3003L63.2003 59.4934L48.1473 34.5883L0 114.471Z" fill="#F6820C"/>
<path d="M120 112.758L104.479 30.7144C103.994 28.1472 100.919 27.0852 98.7779 28.9259L0.800049 112.936L54.6568 138.772C56.3365 139.577 58.2281 140 60.1519 140C62.0757 140 63.9676 139.578 65.6477 138.774L120 112.758Z" fill="#FCCA3F"/>
<defs>
<filter id="filter0_i_13_6" x="0.800049" y="0" width="47.2001" height="112.824" filterUnits="userSpaceOnUse" color-interpolation-filters="sRGB">
<feFlood flood-opacity="0" result="BackgroundImageFix"/>
<feBlend mode="normal" in="SourceGraphic" in2="BackgroundImageFix" result="shape"/>
<feColorMatrix in="SourceAlpha" type="matrix" values="0 0 0 0 0 0 0 0 0 0 0 0 0 0 0 0 0 0 127 0" result="hardAlpha"/>
<feOffset/>
<feGaussianBlur stdDeviation="17.5"/>
<feComposite in2="hardAlpha" operator="arithmetic" k2="-1" k3="1"/>
<feColorMatrix type="matrix" values="0 0 0 0 0 0 0 0 0 0 0 0 0 0 0 0 0 0 0.06 0"/>
<feBlend mode="normal" in2="shape" result="effect1_innerShadow_13_6"/>
</filter>
<filter id="filter1_i_13_6" x="48.8002" y="12.7646" width="30.6001" height="46.5294" filterUnits="userSpaceOnUse" color-interpolation-filters="sRGB">
<feFlood flood-opacity="0" result="BackgroundImageFix"/>
<feBlend mode="normal" in="SourceGraphic" in2="BackgroundImageFix" result="shape"/>
<feColorMatrix in="SourceAlpha" type="matrix" values="0 0 0 0 0 0 0 0 0 0 0 0 0 0 0 0 0 0 127 0" result="hardAlpha"/>
<feOffset dx="1" dy="-9"/>
<feGaussianBlur stdDeviation="3.5"/>
<feComposite in2="hardAlpha" operator="arithmetic" k2="-1" k3="1"/>
<feColorMatrix type="matrix" values="0 0 0 0 0 0 0 0 0 0 0 0 0 0 0 0 0 0 0.09 0"/>
<feBlend mode="normal" in2="shape" result="effect1_innerShadow_13_6"/>
</filter>
</defs>
</svg>
