<svg width="33" height="33" viewBox="0 0 33 33" fill="none" xmlns="http://www.w3.org/2000/svg">
<path fill-rule="evenodd" clip-rule="evenodd" d="M28.5736 4.42612C28.6696 4.52192 28.7458 4.63572 28.7978 4.761C28.8498 4.88629 28.8766 5.0206 28.8766 5.15625C28.8766 5.29189 28.8498 5.4262 28.7978 5.55149C28.7458 5.67678 28.6696 5.79058 28.5736 5.88637L5.88609 28.5739C5.69245 28.7675 5.42982 28.8763 5.15597 28.8763C4.88212 28.8763 4.61948 28.7675 4.42584 28.5739C4.2322 28.3802 4.12341 28.1176 4.12341 27.8437C4.12341 27.5699 4.2322 27.3073 4.42584 27.1136L27.1133 4.42612C27.2091 4.33009 27.3229 4.25389 27.4482 4.2019C27.5735 4.14991 27.7078 4.12315 27.8435 4.12315C27.9791 4.12315 28.1134 4.14991 28.2387 4.2019C28.364 4.25389 28.4778 4.33009 28.5736 4.42612V4.42612Z" fill="black"/>
<path fill-rule="evenodd" clip-rule="evenodd" d="M4.42612 4.42612C4.33009 4.52192 4.25389 4.63572 4.2019 4.761C4.14991 4.88629 4.12315 5.0206 4.12315 5.15625C4.12315 5.29189 4.14991 5.4262 4.2019 5.55149C4.25389 5.67678 4.33009 5.79058 4.42612 5.88637L27.1136 28.5739C27.3073 28.7675 27.5699 28.8763 27.8437 28.8763C28.1176 28.8763 28.3802 28.7675 28.5739 28.5739C28.7675 28.3802 28.8763 28.1176 28.8763 27.8437C28.8763 27.5699 28.7675 27.3073 28.5739 27.1136L5.88637 4.42612C5.79058 4.33009 5.67678 4.25389 5.55149 4.2019C5.4262 4.14991 5.29189 4.12315 5.15625 4.12315C5.0206 4.12315 4.88629 4.14991 4.761 4.2019C4.63572 4.25389 4.52192 4.33009 4.42612 4.42612V4.42612Z" fill="black"/>
</svg>
