<svg width="140" height="140" viewBox="0 0 140 140" fill="none" xmlns="http://www.w3.org/2000/svg">
<path d="M8.75 8.75H131.25V131.25H8.75V8.75Z" fill="#F5DE19"/>
<path d="M91.0391 104.453C92.0829 106.573 93.7045 108.355 95.717 109.594C97.7296 110.832 100.051 111.477 102.414 111.453C107.183 111.453 110.232 109.069 110.232 105.766C110.232 101.828 107.1 100.419 101.85 98.1226L98.971 96.8889C90.6585 93.3495 85.146 88.9176 85.146 79.5464C85.146 70.9145 91.7085 64.3389 102.003 64.3389C105.335 64.0982 108.665 64.8441 111.576 66.4833C114.488 68.1226 116.852 70.5828 118.374 73.557L109.375 79.3101C108.789 77.8354 107.768 76.5737 106.448 75.6923C105.129 74.811 103.572 74.3516 101.985 74.3751C101.293 74.3058 100.594 74.3815 99.9325 74.5973C99.2711 74.8131 98.6618 75.1644 98.1437 75.6286C97.6255 76.0929 97.2097 76.66 96.9228 77.2939C96.6358 77.9277 96.4841 78.6144 96.4773 79.3101C96.4773 82.762 98.6166 84.162 103.556 86.3101L106.435 87.5439C116.217 91.7395 121.747 96.0139 121.747 105.626C121.747 115.99 113.605 121.669 102.672 121.669C98.4123 121.94 94.1649 120.973 90.4425 118.884C86.72 116.795 83.6817 113.673 81.6941 109.896L91.0391 104.453ZM50.3735 105.451C52.1804 108.658 53.8254 111.37 57.7804 111.37C61.5604 111.37 63.9491 109.891 63.9491 104.138V64.9951H75.4598V104.291C75.4598 116.209 68.4598 121.634 58.2704 121.634C54.6687 121.831 51.0917 120.933 48.0096 119.059C44.9276 117.185 42.4848 114.422 41.0023 111.134L50.3735 105.451Z" fill="black"/>
</svg>
