<svg width="140" height="140" viewBox="0 0 140 140" fill="none" xmlns="http://www.w3.org/2000/svg">
<path d="M25.8213 119.004L15.9907 8.75H124.009L114.166 118.987L69.9345 131.25L25.8213 119.004Z" fill="#E44F26"/>
<path d="M70 121.879L105.744 111.969L114.152 17.767H70V121.879Z" fill="#F1662A"/>
<path d="M70 58.6556H52.1062L50.8725 44.8088H70V31.2856H36.0938L36.4175 34.9169L39.7381 72.1788H70V58.6556Z" fill="#EBEBEB"/>
<path d="M69.9998 93.7735L69.9385 93.791L54.8798 89.7266L53.9173 78.9423H40.3417L42.2361 100.17L69.9385 107.861L69.9998 107.844V93.7735Z" fill="#EBEBEB"/>
<path d="M69.9519 58.6555V72.1786H86.6032L85.0369 89.718L69.9519 93.7868V107.857L97.6763 100.17L97.8775 97.8862L101.054 62.2868L101.386 58.6555H69.9519Z" fill="white"/>
<path d="M69.9519 31.2856V44.8088H102.616L102.887 41.7725L103.504 34.9169L103.828 31.2856H69.9519Z" fill="white"/>
</svg>
