<svg width="100" height="140" viewBox="0 0 100 140" fill="none" xmlns="http://www.w3.org/2000/svg">
<path d="M75 93.3333C88.8071 93.3333 100 82.8866 100 70C100 57.1133 88.8071 46.6666 75 46.6666C61.1929 46.6666 50 57.1133 50 70C50 82.8866 61.1929 93.3333 75 93.3333Z" fill="#19BCFE"/>
<path fill-rule="evenodd" clip-rule="evenodd" d="M25 140C31.6304 140 37.9893 137.542 42.6777 133.166C47.3661 128.79 50 122.855 50 116.667V93.3334H25C18.3696 93.3334 12.0107 95.7917 7.32233 100.168C2.63392 104.543 0 110.478 0 116.667C0 122.855 2.63392 128.79 7.32233 133.166C12.0107 137.542 18.3696 140 25 140Z" fill="#09CF83"/>
<path fill-rule="evenodd" clip-rule="evenodd" d="M25 93.3333H50V46.6666H25C18.3696 46.6666 12.0107 49.125 7.32233 53.5008C2.63392 57.8766 0 63.8116 0 70C0 76.1883 2.63392 82.1233 7.32233 86.4991C12.0107 90.875 18.3696 93.3333 25 93.3333Z" fill="#A259FF"/>
<path fill-rule="evenodd" clip-rule="evenodd" d="M25 46.6667H50V0H25C18.3696 0 12.0107 2.45833 7.32233 6.83418C2.63392 11.21 0 17.1449 0 23.3333C0 29.5217 2.63392 35.4566 7.32233 39.8325C12.0107 44.2083 18.3696 46.6667 25 46.6667Z" fill="#F24E1E"/>
<path fill-rule="evenodd" clip-rule="evenodd" d="M75 46.6667H50V0H75C81.6304 0 87.9893 2.45833 92.6777 6.83418C97.3661 11.21 100 17.1449 100 23.3333C100 29.5217 97.3661 35.4566 92.6777 39.8325C87.9893 44.2083 81.6304 46.6667 75 46.6667Z" fill="#FF7262"/>
</svg>
