<svg width="140" height="140" viewBox="0 0 140 140" fill="none" xmlns="http://www.w3.org/2000/svg">
<path d="M120.551 80.4808C115.667 80.5144 111.422 82.083 107.868 84.4017C106.563 80.9576 105.259 77.8893 105.029 75.6385C104.773 73.0133 104.467 71.4104 104.773 68.2734C105.08 65.1363 106.461 60.6692 106.435 60.3284C106.41 59.9876 106.128 58.3848 103.316 58.3511C100.503 58.3167 98.0736 59.067 97.7922 60.0557C97.5109 61.0443 96.974 63.2951 96.616 65.6131C96.1301 69.0236 90.9906 81.196 88.0501 87.5724C87.1036 85.084 86.2854 82.9012 86.1061 81.1623C85.8505 78.5371 85.5434 76.9343 85.8505 73.7972C86.1576 70.6602 87.5385 66.1937 87.5127 65.8522C87.4869 65.5115 87.2056 63.9086 84.3929 63.8749C81.5797 63.8406 79.1503 64.5908 78.8695 65.5795C78.5882 66.5689 78.2811 68.8869 77.6932 71.1377C77.1048 73.3885 70.2774 93.7112 68.4874 98.9616C67.7641 101.087 67.0053 103.19 66.2116 105.27C66.2116 105.27 66.1858 105.372 66.1091 105.543C65.8597 106.195 65.6041 106.843 65.3424 107.486V107.52C64.9585 108.441 64.5494 109.293 64.3449 109.293C64.1913 109.293 63.91 106.839 64.3959 103.497C65.4186 96.4388 67.848 85.4591 67.8228 85.084C67.8228 84.8792 68.2829 82.97 66.2374 81.9806C64.2423 80.9919 63.5267 82.6285 63.3474 82.6285C63.1686 82.6285 63.0403 83.2084 63.0403 83.2084C63.0403 83.2084 65.2656 70.8649 58.7957 70.8649C54.7558 70.8649 49.1808 76.7639 46.4191 82.083C43.2797 84.3611 40.1429 86.6458 37.0088 88.9369C35.5007 90.0623 33.9406 91.1877 32.4829 92.2443C32.3804 92.1083 32.2784 91.9372 32.1758 91.8012C24.3509 80.6512 9.87778 72.7742 10.4914 57.8056C10.7218 52.3498 12.1278 38.0283 38.2876 20.6386C59.8185 6.48754 76.9518 10.4085 79.9181 19.1037C84.1626 31.5159 70.738 54.5662 48.4904 57.9073C40.0008 59.1694 35.5512 54.8046 34.4264 53.1681C33.2501 51.4628 33.0708 51.3604 32.6359 51.7019C31.9203 52.2138 32.3804 53.7479 32.6359 54.6342C33.3011 56.9522 36.037 61.0443 40.6654 63.0567C44.757 64.8292 54.7042 65.8186 66.7485 59.6125C80.2246 52.6562 90.7603 33.3228 87.6662 17.1264C84.5717 0.690956 64.1146 -4.7305 44.757 4.44151C33.2501 9.89807 20.771 18.4902 11.7955 29.6746C1.13207 42.9723 -0.555872 54.5318 0.13455 59.3741C2.61546 76.5591 20.3877 87.7435 27.4964 96.0293C27.1383 96.302 26.8055 96.5411 26.5247 96.7459C22.97 99.0983 9.41713 108.543 6.0418 118.534C2.20636 129.854 6.65599 137.971 9.59646 139.061C18.7255 142.437 28.1101 136.368 33.1476 126.342C38.1851 116.318 37.5714 103.292 35.2446 97.325C35.2188 97.257 35.1936 97.1883 35.1421 97.1203C36.0628 96.4044 37.0088 95.6541 37.9295 94.9382C39.6218 93.6043 41.3355 92.3194 43.0696 91.0846C42.1998 94.256 41.5604 98.0409 41.2539 103.497C40.87 109.908 42.8387 118.227 45.4216 121.5C46.5727 122.933 47.9278 122.967 48.7975 122.967C51.8147 122.967 53.1704 119.625 54.679 115.67C56.5199 110.828 58.1821 105.202 58.1821 105.202C58.1821 105.202 56.1108 120.41 61.7368 120.41C63.7822 120.41 65.8535 116.863 66.7743 115.056V115.09C66.7743 115.09 66.8253 114.988 66.9278 114.749C67.1324 114.306 67.2601 114.033 67.2601 114.033V113.965C68.0783 112.055 69.9198 107.725 72.6557 100.53C76.1846 91.2557 79.5857 79.6625 79.5857 79.6625C79.5857 79.6625 79.8928 82.4925 80.9408 87.198C81.555 89.9599 82.8327 92.9946 83.856 95.9269C83.0378 97.4618 82.5262 98.3137 82.5262 98.3137L82.552 98.348C81.8868 99.5071 81.1711 100.768 80.3781 101.997C77.5907 106.429 74.2669 111.51 73.8063 112.976C73.2688 114.715 73.3971 115.977 74.4204 117C75.1619 117.75 76.4912 117.852 77.8468 117.75C80.3529 117.511 82.1171 116.693 82.9863 116.182C84.3419 115.534 85.9273 114.544 87.4101 113.078C90.1466 110.384 91.8082 106.531 91.6552 101.451C91.5785 98.6552 90.888 95.8589 90.0441 93.233C90.3002 92.7562 90.5299 92.2787 90.786 91.8012C95.1073 83.3787 98.4574 74.138 98.4574 74.138C98.4574 74.138 98.7645 76.9679 99.8125 81.6742C100.324 84.061 101.373 86.6525 102.293 89.1753C98.2271 93.5745 95.721 98.6888 94.826 102.031C93.2154 108.237 94.4679 111.032 96.8463 111.68C97.92 111.987 99.4544 111.305 100.58 110.657C102.012 110.044 103.7 108.987 105.311 107.418C108.047 104.725 110.68 100.973 110.527 95.8933C110.45 93.5745 109.99 91.2893 109.351 89.0729C112.803 87.1644 117.252 86.107 122.929 86.9933C135.101 88.9025 137.505 99.0296 137.044 103.293C136.584 107.554 134.027 109.873 133.184 110.589C132.339 111.306 132.058 111.544 132.135 112.055C132.237 112.805 132.646 112.772 133.362 112.635C134.36 112.397 139.756 109.191 139.985 101.348C140.369 91.3237 133.209 80.3784 120.551 80.4808ZM26.6525 122.694C22.6119 128.559 16.9865 130.775 14.5572 128.9C11.949 126.888 12.9718 118.227 17.9325 112.022C20.9498 108.237 24.8367 104.724 27.4197 102.576C28.0075 102.099 28.8773 101.417 29.9258 100.564C30.1046 100.428 30.2071 100.36 30.2071 100.36L30.8208 99.8478C32.6359 108.713 30.8975 116.522 26.6525 122.694ZM56.0598 96.0293C54.6532 100.599 51.7127 112.294 49.9228 111.646C48.3884 111.101 47.4419 102.235 49.6157 93.4721C50.7152 89.0729 53.042 83.8219 54.3977 81.7766C56.5967 78.5028 59.0261 77.411 59.6139 78.7419C60.3559 80.4808 56.929 93.165 56.0598 96.0293ZM80.3271 111.51C79.7387 111.919 79.1766 112.192 78.9205 111.987C78.7418 111.85 79.1766 111.305 79.1766 111.305C79.1766 111.305 82.2196 106.941 83.4212 104.963C84.1121 103.804 84.9298 102.44 85.7995 100.905V101.348C85.7995 106.566 82.0145 110.078 80.3266 111.51H80.3271ZM99.0453 105.816C98.6104 105.406 98.6872 104.042 100.145 99.7798C100.707 98.1089 102.037 95.3134 104.313 92.6195C104.569 93.7105 104.748 94.7679 104.722 95.7565C104.696 102.338 101.168 104.793 99.0453 105.816Z" fill="#CD6799"/>
</svg>
