<svg width="140" height="140" viewBox="0 0 140 140" fill="none" xmlns="http://www.w3.org/2000/svg">
<path d="M25.8212 119.004L15.995 8.75H124.005L114.166 118.987L69.9344 131.25L25.8212 119.004Z" fill="#1572B6"/>
<path d="M70 121.879L105.744 111.969L114.152 17.767H70V121.879Z" fill="#33A9DC"/>
<path d="M70 57.7108H87.8938L89.1275 43.8639H70V30.3408H103.906L103.583 33.9677L100.262 71.234H70V57.7108Z" fill="white"/>
<path d="M70.0831 92.8288L70.0219 92.8463L54.9631 88.7775L54.0006 77.9932H40.425L42.3194 99.225L70.0175 106.916L70.0831 106.899V92.8288Z" fill="#EBEBEB"/>
<path d="M86.7433 70.6606L85.1158 88.7688L70.0352 92.8375V106.908L97.7552 99.225L97.9608 96.9413L100.31 70.6606H86.7433Z" fill="white"/>
<path d="M70.0479 30.3408V43.8639H37.3842L37.1129 40.8233L36.4961 33.9677L36.1723 30.3408H70.0479Z" fill="#EBEBEB"/>
<path d="M69.9998 57.7107V71.2338H55.1292L54.8579 68.1932L54.2454 61.3376L53.9217 57.7107H69.9998Z" fill="#EBEBEB"/>
</svg>
