<svg width="140" height="140" viewBox="0 0 140 140" fill="none" xmlns="http://www.w3.org/2000/svg">
<path d="M137.36 63.7634L76.2345 2.64022C72.7165 -0.880075 67.0071 -0.880075 63.4847 2.64022L50.7917 15.3334L66.8933 31.4354C70.6351 30.171 74.9258 31.0192 77.9085 34.0019C80.9054 37.0037 81.7476 41.3313 80.4526 45.0851L95.9702 60.6035C99.7245 59.3101 104.056 60.1468 107.055 63.1503C111.246 67.3395 111.246 74.1291 107.055 78.3209C102.863 82.5133 96.0735 82.5133 91.8796 78.3209C88.7274 75.1654 87.9486 70.536 89.5444 66.6526L75.073 52.1809L75.0713 90.2644C76.1204 90.7831 77.0785 91.4682 77.9085 92.2933C82.0992 96.4824 82.0992 103.273 77.9085 107.468C73.7167 111.658 66.924 111.658 62.7382 107.468C58.5475 103.273 58.5475 96.483 62.7382 92.2938C63.7424 91.289 64.9359 90.4933 66.2497 89.9526V51.5143C64.934 50.9772 63.7399 50.181 62.7382 49.173C59.563 46.0022 58.7996 41.3433 60.4265 37.4445L44.554 21.5701L2.64141 63.4806C-0.880471 67.0042 -0.880471 72.7143 2.64141 76.2351L63.7679 137.359C67.2871 140.88 72.9954 140.88 76.5189 137.359L137.359 76.5189C140.88 72.997 140.88 67.2837 137.359 63.7634" fill="#DE4C36"/>
</svg>
