<svg width="140" height="140" viewBox="0 0 140 140" fill="none" xmlns="http://www.w3.org/2000/svg">
<path d="M97.0052 97.7749C102.172 97.2115 106.091 92.5201 105.913 86.8898C105.735 81.2601 101.281 76.7559 95.9361 76.7559H95.5801C90.0566 76.9437 85.7812 81.8229 85.9594 87.6404C86.1377 90.4556 87.2063 92.8951 88.8098 94.5841C82.7526 107.158 73.4885 116.354 59.5924 124.048C50.1501 129.303 40.3517 131.18 30.5534 129.866C22.5362 128.74 16.3007 124.987 12.3807 118.793C6.68007 109.598 6.14577 99.6511 10.9561 89.705C14.3412 82.5735 19.6853 77.3187 23.0705 74.6914C22.3579 72.2518 21.2887 68.1232 20.7544 65.1208C-5.07829 84.8258 -2.40571 111.475 5.4332 124.048C11.3121 133.432 23.2487 139.249 36.4323 139.249C39.9951 139.249 43.558 138.874 47.1215 137.936C69.9256 133.244 87.2069 118.981 97.0052 97.7749ZM128.361 74.5041C114.821 57.8015 94.8675 48.606 72.0633 48.606H69.213C67.6096 45.2281 64.2244 42.9757 60.4833 42.9757H60.1267C54.6044 43.1635 50.3289 48.0427 50.5066 53.8608C50.6849 59.4905 55.1387 63.9947 60.4833 63.9947H60.8393C64.7587 63.8069 68.1439 61.1795 69.569 57.6137H72.7759C86.316 57.6137 99.143 61.7423 110.724 69.8122C119.631 76.0053 126.045 84.0752 129.608 93.8335C132.636 101.716 132.458 109.41 129.251 115.979C124.263 125.925 115.89 131.367 104.844 131.367C97.7178 131.367 90.948 129.115 87.3846 127.426C85.4251 129.303 81.8617 132.305 79.3674 134.182C87.0286 137.935 94.8675 140 102.35 140C119.453 140 132.102 130.053 136.912 120.107C142.079 109.222 141.722 90.4556 128.361 74.5041ZM37.8574 100.964C38.0357 106.595 42.4894 111.098 47.8341 111.098H48.1906C53.7135 110.911 57.989 106.031 57.8107 100.214C57.633 94.5835 53.1787 90.08 47.8341 90.08H47.478C47.1215 90.08 46.5866 90.08 46.2312 90.2672C38.9266 77.5059 35.898 63.6191 36.9671 48.6055C37.6791 37.3454 41.2426 27.5865 47.478 19.5166C52.6444 12.5729 62.621 9.19493 69.3913 9.00771C88.2755 8.63212 96.2921 33.404 96.8269 43.3507C99.143 43.9135 103.062 45.2275 105.735 46.1659C103.597 15.7642 85.7812 0 68.6787 0C52.6444 0 37.8574 12.1985 31.978 30.2145C23.783 54.2358 29.1276 77.3187 39.1043 95.5225C38.214 96.8359 37.6791 98.8999 37.8574 100.964Z" fill="#764ABC"/>
</svg>
