<svg width="114" height="139" viewBox="0 0 114 139" fill="none" xmlns="http://www.w3.org/2000/svg">
<path d="M20.8392 136.629C20.0208 137.578 19.0164 138.196 17.9438 138.41C16.8712 138.624 15.7751 138.426 14.784 137.839C13.793 137.252 12.9481 136.3 12.3487 135.095C11.7493 133.89 11.4202 132.482 11.4 131.036V113.991C8.37653 113.991 5.4769 112.389 3.33898 109.539C1.20107 106.689 0 102.823 0 98.7918V45.5962C0 41.5653 1.20107 37.6994 3.33898 34.8491C5.4769 31.9988 8.37653 30.3975 11.4 30.3975H74.1C77.1235 30.3975 80.0231 31.9988 82.161 34.8491C84.2989 37.6994 85.5 41.5653 85.5 45.5962V98.7918C85.5 102.823 84.2989 106.689 82.161 109.539C80.0231 112.389 77.1235 113.991 74.1 113.991H45.6171L20.8392 136.629ZM25.65 113.124C26.1694 113.12 26.6795 112.94 27.132 112.6L40.5555 100.152C41.5108 99.2664 42.6466 98.7917 43.8102 98.7918H68.4C69.9117 98.7918 71.3615 97.9912 72.4305 96.566C73.4995 95.1409 74.1 93.2079 74.1 91.1925V53.1956C74.1 51.1801 73.4995 49.2472 72.4305 47.822C71.3615 46.3969 69.9117 45.5962 68.4 45.5962H17.1C15.5883 45.5962 14.1384 46.3969 13.0695 47.822C12.0005 49.2472 11.4 51.1801 11.4 53.1956V91.1925C11.4 95.2961 13.8453 98.655 17.1 98.7918C19.437 98.9134 21.1299 99.4226 21.9108 100.509C22.6404 101.528 22.6803 103.245 22.8 106.513C22.8171 106.992 22.8171 107.858 22.8 109.325C22.8 110.332 23.1003 111.299 23.6347 112.011C24.1692 112.724 24.8941 113.124 25.65 113.124ZM91.2 76.1153C91.1818 77.0524 91.1818 77.99 91.2 78.9271V76.1153C91.314 72.8476 91.3596 71.1301 92.0892 70.1118C92.8701 69.0251 94.563 68.5159 96.9 68.3943C100.155 68.2576 102.6 64.8986 102.6 60.795V22.7981C102.6 20.7826 101.999 18.8497 100.931 17.4245C99.8615 15.9994 98.4117 15.1987 96.9 15.1987H45.6C44.0883 15.1987 42.6384 15.9994 41.5695 17.4245C40.5005 18.8497 39.9 20.7826 39.9 22.7981H28.5V15.1987C28.5 11.1678 29.7011 7.30192 31.839 4.45161C33.9769 1.60129 36.8765 0 39.9 0H102.6C105.623 0 108.523 1.60129 110.661 4.45161C112.799 7.30192 114 11.1678 114 15.1987V68.3943C114 72.4253 112.799 76.2912 110.661 79.1415C108.523 81.9918 105.623 83.5931 102.6 83.5931V100.638C102.58 102.084 102.251 103.492 101.651 104.697C101.052 105.902 100.207 106.854 99.216 107.441C98.2249 108.029 97.1288 108.227 96.0562 108.012C94.9836 107.798 93.9792 107.18 93.1608 106.232L91.2 104.438V76.1229V76.1153Z" fill="white"/>
</svg>
