<svg width="52" height="52" viewBox="0 0 52 52" fill="none" xmlns="http://www.w3.org/2000/svg">
<g clip-path="url(#clip0_7_298)">
<path d="M44.2975 44.3154H36.6064V32.2465C36.6064 29.3686 36.5462 25.6701 32.5845 25.6701C28.574 25.6701 27.963 28.7917 27.963 32.0336V44.3138H20.2621V19.4984H27.6591V22.8832H27.7583C28.7918 20.9284 31.3056 18.8728 35.0561 18.8728C42.8577 18.8728 44.3056 24.0094 44.3056 30.6881V44.3138L44.2975 44.3154ZM11.5619 16.107C10.9741 16.1072 10.392 15.9915 9.849 15.7664C9.30601 15.5413 8.81275 15.2113 8.39749 14.7953C7.98223 14.3792 7.65312 13.8854 7.42902 13.342C7.20491 12.7986 7.09022 12.2163 7.0915 11.6285C7.09246 10.7438 7.35574 9.87919 7.84804 9.14408C8.34033 8.40897 9.03955 7.83633 9.85727 7.49858C10.675 7.16082 11.5745 7.07312 12.4421 7.24654C13.3096 7.41997 14.1063 7.84675 14.7313 8.47292C15.3564 9.09909 15.7817 9.89652 15.9535 10.7644C16.1254 11.6323 16.0361 12.5316 15.6968 13.3487C15.3576 14.1658 14.7837 14.864 14.0477 15.355C13.3117 15.8459 12.4466 16.1076 11.5619 16.107ZM15.4196 44.3154H7.7025V19.5H15.4196V44.3154ZM48.1585 0H3.835C1.71762 0 0 1.67537 0 3.74887V48.2528C0 50.3263 1.71762 52.0016 3.835 52.0016H48.1504C50.2645 52.0016 52 50.3263 52 48.2528V3.74887C52 1.67537 50.2645 0 48.1504 0H48.1585Z" fill="white"/>
</g>
<defs>
<clipPath id="clip0_7_298">
<rect width="52" height="52" fill="white"/>
</clipPath>
</defs>
</svg>
